<svg width="140" height="21" viewBox="0 0 140 21" fill="none" xmlns="http://www.w3.org/2000/svg"><desc>iContainers Logo with text icon</desc><g clip-path="url(#clipe222dc30-25f6-4add-85e7-1aa958b0156f)"><path d="M8.70944 0.34469H0.977387C0.616079 0.34469 0.323181 0.631579 0.323181 0.985473V5.86696C0.323181 6.22085 0.616079 6.50774 0.977387 6.50774H8.70944C9.07075 6.50774 9.36365 6.22085 9.36365 5.86696V0.985473C9.36365 0.631579 9.07075 0.34469 8.70944 0.34469Z" fill="#DD6F3C"></path><path d="M8.70944 7.19094H0.977387C0.616079 7.19094 0.323181 7.47783 0.323181 7.83173V12.7132C0.323181 13.0671 0.616079 13.354 0.977387 13.354H8.70944C9.07075 13.354 9.36365 13.0671 9.36365 12.7132V7.83173C9.36365 7.47783 9.07075 7.19094 8.70944 7.19094Z" fill="#5FA0D5"></path><path d="M8.70944 14.0409H0.977387C0.616079 14.0409 0.323181 14.3278 0.323181 14.6817V19.5631C0.323181 19.917 0.616079 20.2039 0.977387 20.2039H8.70944C9.07075 20.2039 9.36365 19.917 9.36365 19.5631V14.6817C9.36365 14.3278 9.07075 14.0409 8.70944 14.0409Z" fill="#2F6FB2"></path><path d="M18.3956 7.19094H10.6635C10.3022 7.19094 10.0093 7.47783 10.0093 7.83173V12.7132C10.0093 13.0671 10.3022 13.354 10.6635 13.354H18.3956C18.7569 13.354 19.0498 13.0671 19.0498 12.7132V7.83173C19.0498 7.47783 18.7569 7.19094 18.3956 7.19094Z" fill="#2F6FB2"></path><path d="M18.3956 14.0409H10.6635C10.3022 14.0409 10.0093 14.3278 10.0093 14.6817V19.5631C10.0093 19.917 10.3022 20.2039 10.6635 20.2039H18.3956C18.7569 20.2039 19.0498 19.917 19.0498 19.5631V14.6817C19.0498 14.3278 18.7569 14.0409 18.3956 14.0409Z" fill="#5FA0D5"></path><path d="M28.0825 14.0409H20.3504C19.9891 14.0409 19.6962 14.3278 19.6962 14.6817V19.5631C19.6962 19.917 19.9891 20.2039 20.3504 20.2039H28.0825C28.4438 20.2039 28.7367 19.917 28.7367 19.5631V14.6817C28.7367 14.3278 28.4438 14.0409 28.0825 14.0409Z" fill="#2F6FB2"></path><path fill-rule="evenodd" clip-rule="evenodd" d="M49.2211 10.0912H44.4977V6.99233C44.4977 6.09075 44.4473 5.52878 44.3472 5.30515C44.2458 5.08088 44.0234 4.96938 43.68 4.96938C43.29 4.96938 43.0434 5.10522 42.9387 5.37628C42.8341 5.64797 42.7817 6.23364 42.7817 7.13523V15.3981C42.7817 16.2632 42.8341 16.8271 42.9387 17.0911C43.0434 17.3551 43.2789 17.4871 43.6453 17.4871C43.9972 17.4871 44.2275 17.3551 44.3355 17.0911C44.4441 16.8283 44.499 16.2087 44.499 15.2341V13.0042H49.2224V13.6962C49.2224 15.5352 49.0889 16.8386 48.8233 17.6075C48.5577 18.3765 47.9702 19.0512 47.0615 19.6299C46.1522 20.2085 45.0335 20.4981 43.7015 20.4981C42.3186 20.4981 41.1776 20.2521 40.28 19.7612C39.3825 19.2704 38.7885 18.5905 38.496 17.7222C38.2049 16.8546 38.059 15.5487 38.059 13.8051V8.6071C38.059 7.32554 38.1035 6.36308 38.1931 5.7223C38.2834 5.08152 38.5503 4.46444 38.9958 3.87044C39.4407 3.27771 40.0576 2.81058 40.8472 2.47033C41.6362 2.12943 42.5429 1.95898 43.5674 1.95898C44.9589 1.95898 46.1071 2.22298 47.0118 2.75035C47.9172 3.27771 48.5113 3.9358 48.7958 4.72268C49.0798 5.51084 49.2224 6.73602 49.2224 8.39885V10.0905L49.2211 10.0912ZM60.9052 10.6627V14.2338C60.9052 15.5455 60.8372 16.5073 60.7024 17.1186C60.5683 17.7306 60.2804 18.3022 59.8388 18.8334C59.3979 19.3652 58.8314 19.7561 58.1392 20.0098C57.4471 20.2623 56.6529 20.3879 55.7553 20.3879C54.753 20.3879 53.9039 20.2809 53.2085 20.0643C52.5124 19.849 51.972 19.5228 51.586 19.0871C51.202 18.6514 50.9266 18.124 50.7617 17.5044C50.5982 16.8854 50.5158 15.9569 50.5158 14.7189V10.9831C50.5158 9.62723 50.6649 8.56866 50.9645 7.80676C51.2635 7.04551 51.8019 6.43357 52.5804 5.9722C53.3576 5.51084 54.3533 5.28016 55.5636 5.28016C56.5815 5.28016 57.4543 5.42754 58.1837 5.72486C58.9131 6.02219 59.4764 6.40858 59.8729 6.88468C60.2686 7.36078 60.5401 7.85226 60.686 8.3572C60.8319 8.86342 60.9045 9.63236 60.9045 10.6653L60.9052 10.6627ZM56.3715 9.56379C56.3715 8.81664 56.331 8.3463 56.2486 8.15151C56.1661 7.95799 55.9908 7.86123 55.7213 7.86123C55.453 7.86123 55.2725 7.95735 55.1829 8.15215C55.0939 8.34695 55.0487 8.81856 55.0487 9.56507V16.1472C55.0487 16.836 55.0945 17.2846 55.1835 17.4928C55.2738 17.7024 55.4498 17.8068 55.7114 17.8068C55.981 17.8068 56.1583 17.7107 56.2446 17.521C56.3297 17.3314 56.3735 16.9213 56.3735 16.2907V9.56379H56.3715ZM66.8781 5.5416L66.7996 6.88212C67.128 6.3477 67.5297 5.94657 68.0046 5.67873C68.4796 5.41152 69.0278 5.27759 69.6486 5.27759C70.4271 5.27759 71.0617 5.45701 71.5557 5.81585C72.0496 6.17469 72.3669 6.62773 72.5095 7.17431C72.6514 7.71898 72.7228 8.62889 72.7228 9.90405V20.1245H68.1891V10.0258C68.1891 9.02169 68.1564 8.40974 68.089 8.18995C68.021 7.97081 67.8339 7.86123 67.5264 7.86123C67.2058 7.86123 67.003 7.98747 66.9213 8.23929C66.8395 8.49304 66.7983 9.16843 66.7983 10.2674V20.1252H62.2646V5.5416H66.8768H66.8781ZM78.9305 3.59618V5.89339H80.1539V8.20021H78.9305V16.0037C78.9305 16.9629 78.9829 17.498 79.083 17.6075C79.1837 17.7178 79.6043 17.7729 80.3456 17.7729V20.1245H78.5164C77.4841 20.1245 76.7474 20.0822 76.3052 19.9977C75.8683 19.9154 75.4641 19.7137 75.1394 19.4158C74.8025 19.1115 74.5931 18.7635 74.5114 18.3714C74.4289 17.9805 74.3871 17.0577 74.3871 15.6077V8.20021H73.4123V5.89339H74.3871V3.59618H78.9305ZM85.0722 11.1895H80.8199V10.2123C80.8199 9.08449 80.9527 8.21302 81.2189 7.60236C81.4839 6.99041 82.0171 6.45023 82.8171 5.98117C83.6179 5.51212 84.6574 5.27759 85.9377 5.27759C87.4699 5.27759 88.6265 5.54352 89.4037 6.07473C90.1822 6.60658 90.6487 7.25761 90.8063 8.0304C90.9633 8.80382 91.0418 10.3949 91.0418 12.8055V20.1245H86.6325V18.8276C86.3557 19.3479 85.9979 19.7375 85.5609 19.9977C85.1226 20.2578 84.6018 20.3885 83.996 20.3885C83.2176 20.393 82.4563 20.165 81.8136 19.7349C81.1515 19.2992 80.8205 18.3444 80.8205 16.8706V15.6737C80.8205 14.5818 80.9971 13.8385 81.3478 13.4437C81.6998 13.0464 82.5712 12.5851 83.962 12.0584C85.4503 11.4868 86.2472 11.1023 86.3518 10.905C86.4565 10.7063 86.5088 10.3039 86.5088 9.69579C86.5088 8.93454 86.4513 8.43794 86.3348 8.20725C86.219 7.97657 86.0273 7.86123 85.7572 7.86123C85.4497 7.86123 85.26 7.95735 85.1854 8.15215C85.1101 8.34695 85.0728 8.8506 85.0728 9.66439V11.1914L85.0722 11.1895ZM86.5082 13.19C85.782 13.7103 85.362 14.146 85.2456 14.4972C85.1304 14.8496 85.0722 15.3558 85.0722 16.0146C85.0722 16.7688 85.1226 17.2564 85.224 17.4755C85.3247 17.696 85.5249 17.8055 85.8239 17.8055C86.1085 17.8055 86.2936 17.7197 86.38 17.5473C86.465 17.3743 86.5082 16.9225 86.5082 16.1901V13.19ZM97.1364 2.33256V4.65219H92.4693V2.33256H97.1364ZM97.1364 5.5416V20.1245H92.4693V5.5416H97.1364ZM103.243 5.5416L103.165 6.88212C103.494 6.3477 103.896 5.94657 104.371 5.67873C104.846 5.41152 105.393 5.27759 106.013 5.27759C106.792 5.27759 107.428 5.45701 107.921 5.81585C108.415 6.17469 108.732 6.62773 108.875 7.17431C109.017 7.71898 109.088 8.62889 109.088 9.90405V20.1245H104.556V10.0258C104.556 9.02169 104.522 8.40974 104.454 8.18995C104.387 7.97081 104.199 7.86123 103.894 7.86123C103.572 7.86123 103.37 7.98747 103.288 8.23929C103.205 8.49304 103.164 9.16843 103.164 10.2674V20.1252H98.6319V5.5416H103.243ZM120.783 13.0913H114.916V16.2452C114.916 16.9052 114.964 17.3294 115.062 17.5204C115.158 17.7101 115.346 17.8055 115.622 17.8055C115.966 17.8055 116.196 17.6793 116.312 17.4262C116.428 17.1737 116.486 16.6848 116.486 15.9588V14.0365H120.783V15.113C120.783 16.0146 120.724 16.7066 120.609 17.1904C120.494 17.6735 120.222 18.19 119.796 18.7398C119.376 19.2846 118.817 19.7111 118.175 19.9765C117.519 20.2508 116.698 20.3879 115.711 20.3879C114.754 20.3879 113.909 20.2533 113.176 19.9816C112.443 19.7106 111.872 19.3383 111.465 18.8667C111.068 18.4142 110.779 17.881 110.618 17.3057C110.461 16.738 110.382 15.912 110.382 14.8272V10.5743C110.382 9.29915 110.559 8.29312 110.909 7.5575C111.261 6.8206 111.837 6.25671 112.636 5.86583C113.438 5.47303 114.357 5.27631 115.397 5.27631C116.669 5.27631 117.718 5.5134 118.544 5.9863C119.371 6.45856 119.951 7.08524 120.284 7.86508C120.616 8.64555 120.783 9.74257 120.783 11.1561V13.0913ZM116.239 10.7172V9.65158C116.239 8.89674 116.198 8.40974 116.116 8.19059C116.034 7.97017 115.866 7.86059 115.611 7.86059C115.297 7.86059 115.102 7.95351 115.028 8.14061C114.953 8.32644 114.916 8.83074 114.916 9.65158V10.7172H116.239ZM126.666 5.5416L126.487 7.45369C127.145 6.0837 128.099 5.35833 129.348 5.27759V10.4103C128.517 10.4103 127.908 10.5192 127.518 10.7396C127.13 10.9594 126.89 11.2651 126.801 11.6572C126.712 12.0481 126.667 12.9516 126.667 14.3658V20.1239H122.134V5.5416H126.666ZM139.482 10.2001H135.465V9.41C135.465 8.7359 135.426 8.30914 135.347 8.12972C135.269 7.9503 135.072 7.86059 134.758 7.86059C134.505 7.86059 134.314 7.94261 134.187 8.10729C134.06 8.27262 133.997 8.51996 133.997 8.84932C133.997 9.29595 134.028 9.62467 134.091 9.83292C134.155 10.0418 134.346 10.2706 134.664 10.5198C134.982 10.7697 135.634 11.1311 136.622 11.6079C137.938 12.2378 138.801 12.8318 139.212 13.388C139.624 13.9455 139.831 14.7541 139.831 15.8166C139.831 17.0033 139.674 17.8991 139.359 18.5034C139.045 19.1076 138.52 19.5735 137.783 19.899C137.047 20.2258 136.158 20.3879 135.119 20.3879C133.968 20.3879 132.982 20.2123 132.162 19.8605C131.344 19.5081 130.78 19.0326 130.474 18.4316C130.167 17.8312 130.014 16.9225 130.014 15.7063V15.004H134.031V15.9268C134.031 16.7111 134.081 17.2199 134.181 17.4544C134.283 17.6889 134.482 17.8068 134.782 17.8068C135.104 17.8068 135.328 17.7274 135.456 17.5697C135.583 17.4127 135.646 17.0808 135.646 16.5752C135.646 15.8794 135.564 15.4436 135.399 15.268C135.227 15.0918 134.348 14.5715 132.762 13.7071C131.431 12.9747 130.62 12.3102 130.329 11.713C130.036 11.1158 129.891 10.4071 129.891 9.58558C129.891 8.42128 130.048 7.56263 130.362 7.00963C130.676 6.456 131.209 6.02923 131.96 5.72935C132.713 5.42818 133.585 5.27824 134.58 5.27824C135.568 5.27824 136.407 5.40127 137.099 5.64669C137.791 5.89275 138.322 6.21698 138.692 6.62068C139.062 7.02245 139.288 7.39602 139.366 7.74077C139.445 8.08487 139.484 8.62376 139.484 9.35554V10.2014L139.482 10.2001Z" fill="#2F6FB2"></path><path d="M36.5622 4.65219V2.33256H31.8951V4.65219H36.5622Z" fill="#DD6F3C"></path><path d="M36.5622 20.1245V5.5416H31.8951V20.1245H36.5622Z" fill="#DD6F3C"></path></g><defs><clipPath id="url(#clipe222dc30-25f6-4add-85e7-1aa958b0156f)"><rect width="140" height="20.5051" fill="white"></rect></clipPath></defs></svg>