<?xml version="1.0" encoding="UTF-8" standalone="no" ?>
<!DOCTYPE svg PUBLIC "-//W3C//DTD SVG 1.1//EN" "http://www.w3.org/Graphics/SVG/1.1/DTD/svg11.dtd">
<svg xmlns="http://www.w3.org/2000/svg" xmlns:xlink="http://www.w3.org/1999/xlink" version="1.1" width="1080" height="1080" viewBox="0 0 1080 1080" xml:space="preserve">
<desc>Created with Fabric.js 5.2.4</desc>
<defs>
</defs>
<g transform="matrix(1 0 0 1 540 540)" id="c41f3e38-cf53-413c-9d46-437839db5bf9"  >
</g>
<g transform="matrix(1 0 0 1 540 540)" id="45257c53-c3c8-4a69-92db-f5cfc848d8a0"  >
<rect style="stroke: none; stroke-width: 1; stroke-dasharray: none; stroke-linecap: butt; stroke-dashoffset: 0; stroke-linejoin: miter; stroke-miterlimit: 4; fill: rgb(255,255,255); fill-rule: nonzero; opacity: 1; visibility: hidden;" vector-effect="non-scaling-stroke"  x="-540" y="-540" rx="0" ry="0" width="1080" height="1080" />
</g>
<g transform="matrix(37 0 0 37 177.02 324.08)"  >
<path style="stroke: none; stroke-width: 1; stroke-dasharray: none; stroke-linecap: butt; stroke-dashoffset: 0; stroke-linejoin: miter; stroke-miterlimit: 4; fill: rgb(221,111,60); fill-rule: nonzero; opacity: 1;" vector-effect="non-scaling-stroke"  transform=" translate(-4.84, -3.43)" d="M 8.70944 0.34469 L 0.977387 0.34469 C 0.616079 0.34469 0.323181 0.631579 0.323181 0.985473 L 0.323181 5.86696 C 0.323181 6.22085 0.616079 6.50774 0.977387 6.50774 L 8.70944 6.50774 C 9.07075 6.50774 9.36365 6.22085 9.36365 5.86696 L 9.36365 0.985473 C 9.36365 0.631579 9.07075 0.34469 8.70944 0.34469 Z" stroke-linecap="round" />
</g>
<g transform="matrix(37 0 0 37 177.02 577.49)"  >
<path style="stroke: none; stroke-width: 1; stroke-dasharray: none; stroke-linecap: butt; stroke-dashoffset: 0; stroke-linejoin: miter; stroke-miterlimit: 4; fill: rgb(95,160,213); fill-rule: nonzero; opacity: 1;" vector-effect="non-scaling-stroke"  transform=" translate(-4.84, -10.27)" d="M 8.70944 7.19094 L 0.977387 7.19094 C 0.616079 7.19094 0.323181 7.47783 0.323181 7.83173 L 0.323181 12.7132 C 0.323181 13.0671 0.616079 13.354 0.977387 13.354 L 8.70944 13.354 C 9.07075 13.354 9.36365 13.0671 9.36365 12.7132 L 9.36365 7.83173 C 9.36365 7.47783 9.07075 7.19094 8.70944 7.19094 Z" stroke-linecap="round" />
</g>
<g transform="matrix(37 0 0 37 177.02 831.1)"  >
<path style="stroke: none; stroke-width: 1; stroke-dasharray: none; stroke-linecap: butt; stroke-dashoffset: 0; stroke-linejoin: miter; stroke-miterlimit: 4; fill: rgb(47,111,178); fill-rule: nonzero; opacity: 1;" vector-effect="non-scaling-stroke"  transform=" translate(-4.84, -17.12)" d="M 8.70944 14.0409 L 0.977387 14.0409 C 0.616079 14.0409 0.323181 14.3278 0.323181 14.6817 L 0.323181 19.5631 C 0.323181 19.917 0.616079 20.2039 0.977387 20.2039 L 8.70944 20.2039 C 9.07075 20.2039 9.36365 19.917 9.36365 19.5631 L 9.36365 14.6817 C 9.36365 14.3278 9.07075 14.0409 8.70944 14.0409 Z" stroke-linecap="round" />
</g>
<g transform="matrix(37 0 0 37 535.57 577.49)"  >
<path style="stroke: none; stroke-width: 1; stroke-dasharray: none; stroke-linecap: butt; stroke-dashoffset: 0; stroke-linejoin: miter; stroke-miterlimit: 4; fill: rgb(47,111,178); fill-rule: nonzero; opacity: 1;" vector-effect="non-scaling-stroke"  transform=" translate(-14.53, -10.27)" d="M 18.3956 7.19094 L 10.6635 7.19094 C 10.3022 7.19094 10.0093 7.47783 10.0093 7.83173 L 10.0093 12.7132 C 10.0093 13.0671 10.3022 13.354 10.6635 13.354 L 18.3956 13.354 C 18.7569 13.354 19.0498 13.0671 19.0498 12.7132 L 19.0498 7.83173 C 19.0498 7.47783 18.7569 7.19094 18.3956 7.19094 Z" stroke-linecap="round" />
</g>
<g transform="matrix(37 0 0 37 535.57 831.1)"  >
<path style="stroke: none; stroke-width: 1; stroke-dasharray: none; stroke-linecap: butt; stroke-dashoffset: 0; stroke-linejoin: miter; stroke-miterlimit: 4; fill: rgb(95,160,213); fill-rule: nonzero; opacity: 1;" vector-effect="non-scaling-stroke"  transform=" translate(-14.53, -17.12)" d="M 18.3956 14.0409 L 10.6635 14.0409 C 10.3022 14.0409 10.0093 14.3278 10.0093 14.6817 L 10.0093 19.5631 C 10.0093 19.917 10.3022 20.2039 10.6635 20.2039 L 18.3956 20.2039 C 18.7569 20.2039 19.0498 19.917 19.0498 19.5631 L 19.0498 14.6817 C 19.0498 14.3278 18.7569 14.0409 18.3956 14.0409 Z" stroke-linecap="round" />
</g>
<g transform="matrix(37 0 0 37 894.16 831.1)"  >
<path style="stroke: none; stroke-width: 1; stroke-dasharray: none; stroke-linecap: butt; stroke-dashoffset: 0; stroke-linejoin: miter; stroke-miterlimit: 4; fill: rgb(47,111,178); fill-rule: nonzero; opacity: 1;" vector-effect="non-scaling-stroke"  transform=" translate(-24.22, -17.12)" d="M 28.0825 14.0409 L 20.3504 14.0409 C 19.9891 14.0409 19.6962 14.3278 19.6962 14.6817 L 19.6962 19.5631 C 19.6962 19.917 19.9891 20.2039 20.3504 20.2039 L 28.0825 20.2039 C 28.4438 20.2039 28.7367 19.917 28.7367 19.5631 L 28.7367 14.6817 C 28.7367 14.3278 28.4438 14.0409 28.0825 14.0409 Z" stroke-linecap="round" />
</g>
</svg>